<svg width="1600" height="1000" viewBox="0 0 1600 1000" fill="none" xmlns="http://www.w3.org/2000/svg">
  <rect width="1600" height="1000" fill="#FAFAFA"/>
  <defs>
    <filter id="softShadow" x="-20%" y="-20%" width="140%" height="140%"><feDropShadow dx="0" dy="18" stdDeviation="18" flood-color="#000" flood-opacity="0.10"/></filter>
    <linearGradient id="stockBg" x1="90" y1="100" x2="400" y2="410"><stop stop-color="#F0EBFF"/><stop offset="1" stop-color="#F8F5FF"/></linearGradient>
    <linearGradient id="wasteBg" x1="495" y1="100" x2="805" y2="410"><stop stop-color="#E8FAF8"/><stop offset="1" stop-color="#F3FFFC"/></linearGradient>
    <linearGradient id="supplierBg" x1="900" y1="100" x2="1210" y2="410"><stop stop-color="#EAF5FF"/><stop offset="1" stop-color="#F5FBFF"/></linearGradient>
    <linearGradient id="shiftBg" x1="1305" y1="100" x2="1615" y2="410"><stop stop-color="#FFF1E2"/><stop offset="1" stop-color="#FFF8EF"/></linearGradient>
    <linearGradient id="procBg" x1="210" y1="570" x2="520" y2="880"><stop stop-color="#FFEAF0"/><stop offset="1" stop-color="#FFF6F8"/></linearGradient>
    <linearGradient id="marginBg" x1="645" y1="570" x2="955" y2="880"><stop stop-color="#E8FAEF"/><stop offset="1" stop-color="#F5FFF8"/></linearGradient>
    <linearGradient id="dashBg" x1="1080" y1="570" x2="1390" y2="880"><stop stop-color="#FFF7D8"/><stop offset="1" stop-color="#FFFBEA"/></linearGradient>
  </defs>
  <g id="icon-stock-manager" filter="url(#softShadow)"><rect x="90" y="100" width="310" height="310" rx="44" fill="url(#stockBg)"/><g id="stock-symbol"><path d="M173 229L263 178L350 221L262 274L173 229Z" fill="#8D75F4"/><path d="M173 229V322L262 375V274L173 229Z" fill="#4B2BD6"/><path d="M262 274L350 221V313L262 375V274Z" fill="#6F55E8"/><path d="M214 206L305 252" stroke="#FFF" stroke-width="14" stroke-linecap="round"/><path d="M262 274V375" stroke="#FFF" stroke-width="10" opacity=".9"/></g></g>
  <g id="icon-wastage-logger" filter="url(#softShadow)"><rect x="495" y="100" width="310" height="310" rx="44" fill="url(#wasteBg)"/><g id="waste-symbol" stroke="#086B62" stroke-width="17" stroke-linecap="round" stroke-linejoin="round"><path d="M650 203C610 203 578 235 578 275C578 315 610 347 650 347C690 347 722 315 722 275"/><path d="M650 224V277H695"/><path d="M734 224L734 224"/><path d="M747 264L747 264"/></g></g>
  <g id="icon-supplier-portal" filter="url(#softShadow)"><rect x="900" y="100" width="310" height="310" rx="44" fill="url(#supplierBg)"/><g id="supplier-symbol" stroke="#1167D8" stroke-width="12" stroke-linecap="round" stroke-linejoin="round"><circle cx="1055" cy="275" r="43" fill="#1167D8" stroke="none"/><circle cx="990" cy="325" r="35" fill="#1167D8" stroke="none"/><circle cx="1120" cy="325" r="35" fill="#1167D8" stroke="none"/><circle cx="1055" cy="188" r="35" fill="#1167D8" stroke="none"/><path d="M1055 232V275M1021 300L990 325M1089 300L1120 325"/><path d="M970 260C980 220 1015 195 1055 195C1095 195 1130 220 1140 260" stroke-dasharray="2 18"/><circle cx="1055" cy="179" r="13" fill="#FFF" stroke="none"/><path d="M1033 205C1040 195 1070 195 1077 205" stroke="#FFF" stroke-width="8"/><circle cx="990" cy="316" r="11" fill="#FFF" stroke="none"/><path d="M970 340C977 330 1003 330 1010 340" stroke="#FFF" stroke-width="7"/><circle cx="1120" cy="316" r="11" fill="#FFF" stroke="none"/><path d="M1100 340C1107 330 1133 330 1140 340" stroke="#FFF" stroke-width="7"/></g></g>
  <g id="icon-shift-tracker" filter="url(#softShadow)"><rect x="1305" y="100" width="310" height="310" rx="44" fill="url(#shiftBg)"/><g id="shift-symbol"><rect x="1381" y="185" width="160" height="165" rx="24" fill="#FFF9F1" stroke="#F46A00" stroke-width="10"/><path d="M1381 228H1541" stroke="#F46A00" stroke-width="22"/><path d="M1414 176V215M1508 176V215" stroke="#F46A00" stroke-width="15" stroke-linecap="round"/><g fill="#F89718"><circle cx="1424" cy="266" r="9"/><circle cx="1462" cy="266" r="9"/><circle cx="1500" cy="266" r="9"/><circle cx="1424" cy="304" r="9"/><circle cx="1462" cy="304" r="9"/><circle cx="1500" cy="304" r="9"/></g><circle cx="1546" cy="338" r="43" fill="#F46A00"/><path d="M1525 337L1540 352L1570 319" stroke="#FFF" stroke-width="10" stroke-linecap="round" stroke-linejoin="round"/></g></g>
  <g id="icon-procurement-manager" filter="url(#softShadow)"><rect x="210" y="570" width="310" height="310" rx="44" fill="url(#procBg)"/><g id="procurement-symbol" fill="#CB1552"><path d="M287 672H315L333 760H454L433 813H334L310 700H287V672Z"/><circle cx="350" cy="835" r="15"/><circle cx="425" cy="835" r="15"/><circle cx="453" cy="779" r="39"/><path d="M434 778L449 793L476 761" stroke="#FFF" stroke-width="10" stroke-linecap="round" stroke-linejoin="round" fill="none"/></g></g>
  <g id="icon-margin-calculator" filter="url(#softShadow)"><rect x="645" y="570" width="310" height="310" rx="44" fill="url(#marginBg)"/><g id="margin-symbol"><rect x="706" y="642" width="190" height="190" rx="28" fill="#17A858"/><path d="M801 642V832M706 737H896" stroke="#D9FBE3" stroke-width="6"/><path d="M735 690H775M755 670V710" stroke="#D9FBE3" stroke-width="12" stroke-linecap="round"/><path d="M827 690H865" stroke="#D9FBE3" stroke-width="12" stroke-linecap="round"/><path d="M738 778L772 812M772 778L738 812" stroke="#D9FBE3" stroke-width="12" stroke-linecap="round"/><path d="M828 786H868M828 812H868" stroke="#D9FBE3" stroke-width="12" stroke-linecap="round"/></g></g>
  <g id="icon-daily-ops-dashboard" filter="url(#softShadow)"><rect x="1080" y="570" width="310" height="310" rx="44" fill="url(#dashBg)"/><g id="dashboard-symbol" stroke="#E6A800" stroke-width="9" stroke-linecap="round" stroke-linejoin="round"><rect x="1144" y="646" width="190" height="160" rx="20" fill="#FFFDF5"/><path d="M1205 694V648A49 49 0 1 0 1240 733L1205 694Z" fill="#E6A800" stroke="none"/><path d="M1214 648V685H1252" stroke="#FFFDF5" stroke-width="8"/><path d="M1270 680H1312M1270 710H1312M1270 740H1297"/><rect x="1190" y="760" width="26" height="35" rx="5" fill="#E6A800" stroke="none"/><rect x="1235" y="735" width="26" height="60" rx="5" fill="#E6A800" stroke="none"/><rect x="1280" y="705" width="26" height="90" rx="5" fill="#E6A800" stroke="none"/></g></g>
</svg>
