<svg width="1254" height="1254" viewBox="0 0 1254 1254" fill="none" xmlns="http://www.w3.org/2000/svg">
<g clip-path="url(#clip0_1_2)">
<path d="M1254 0H0V1254H1254V0Z" fill="white"/>
<path d="M221 504L338 694L455 504H417L338 632L261.5 504H221Z" fill="black"/>
<path d="M467 504L536.5 618H538.5L556.5 588L502 504H467Z" fill="black"/>
<path d="M658.5 504H620.097L473 752L510 751L658.5 504Z" fill="black"/>
<path d="M853 519.5H715.922C688.275 519.5 673.529 535.533 673.529 557.674C673.529 581.827 690.118 597.93 717.765 597.93H777.667C805.314 597.93 820.98 615.039 820.98 638.186C820.98 661.334 803.471 676.5 778.588 676.5C699.863 676.5 579 676.5 579 676.5" stroke="black" stroke-width="33" stroke-miterlimit="10" stroke-linejoin="round"/>
<path d="M892.5 503.5H853V535.5C865.982 519.464 878.253 512.228 892.5 503.5Z" fill="black"/>
<path d="M853 536V535.5M853 503V503.5M853 503.5H892.5C878.253 512.228 865.982 519.464 853 535.5M853 503.5V535.5" stroke="black"/>
<path d="M580 692.5L578.5 660.5L559 692.5H559.512H580Z" fill="black"/>
<path d="M559.512 692.5H559L578.5 660.5L580 660M578.5 660.5L580 692.5V693M580 692.5H559" stroke="black"/>
<path d="M938.5 696C991.243 696 1034 652.795 1034 599.5C1034 546.205 991.243 503 938.5 503C885.757 503 843 546.205 843 599.5C843 652.795 885.757 696 938.5 696Z" fill="black"/>
</g>
<defs>
<clipPath id="clip0_1_2">
<rect width="1254" height="1254" fill="white"/>
</clipPath>
</defs>
</svg>
